<mxfile host="app.diagrams.net" modified="2023-02-14T14:40:12.853Z" agent="5.0 (Macintosh; Intel Mac OS X 10_15_7) AppleWebKit/537.36 (KHTML, like Gecko) Chrome/112.0.0.0 Safari/537.36" etag="C2amUl82-y3DOoyf108C" version="20.8.20" type="github">
  <diagram name="第 1 页" id="jBALGVX91TinAHGSU4XN">
    <mxGraphModel dx="2802" dy="1101" grid="1" gridSize="10" guides="1" tooltips="1" connect="1" arrows="1" fold="1" page="1" pageScale="1" pageWidth="827" pageHeight="1169" math="0" shadow="0">
      <root>
        <mxCell id="0" />
        <mxCell id="1" parent="0" />
        <mxCell id="35czVd8B8zuA92bIW4XF-18" style="edgeStyle=orthogonalEdgeStyle;rounded=0;orthogonalLoop=1;jettySize=auto;html=1;entryX=0;entryY=1;entryDx=0;entryDy=0;shape=flexArrow;" parent="1" source="35czVd8B8zuA92bIW4XF-1" target="35czVd8B8zuA92bIW4XF-2" edge="1">
          <mxGeometry relative="1" as="geometry">
            <mxPoint x="280" y="400" as="targetPoint" />
            <Array as="points">
              <mxPoint x="420" y="360" />
              <mxPoint x="420" y="360" />
            </Array>
          </mxGeometry>
        </mxCell>
        <mxCell id="35czVd8B8zuA92bIW4XF-1" value="客户端" style="whiteSpace=wrap;html=1;aspect=fixed;" parent="1" vertex="1">
          <mxGeometry x="200" y="280" width="80" height="80" as="geometry" />
        </mxCell>
        <mxCell id="35czVd8B8zuA92bIW4XF-2" value="服务端" style="whiteSpace=wrap;html=1;aspect=fixed;" parent="1" vertex="1">
          <mxGeometry x="580" y="280" width="80" height="80" as="geometry" />
        </mxCell>
        <mxCell id="35czVd8B8zuA92bIW4XF-5" value="" style="shape=doubleArrow;whiteSpace=wrap;html=1;rotation=90;" parent="1" vertex="1">
          <mxGeometry x="585" y="215" width="70" height="40" as="geometry" />
        </mxCell>
        <mxCell id="35czVd8B8zuA92bIW4XF-6" value="每小时生成一对新的密钥对" style="text;html=1;align=center;verticalAlign=middle;resizable=0;points=[];autosize=1;strokeColor=none;fillColor=none;" parent="1" vertex="1">
          <mxGeometry x="535" y="215" width="170" height="30" as="geometry" />
        </mxCell>
        <mxCell id="35czVd8B8zuA92bIW4XF-8" value="" style="shape=actor;whiteSpace=wrap;html=1;" parent="1" vertex="1">
          <mxGeometry x="30" y="290" width="40" height="60" as="geometry" />
        </mxCell>
        <mxCell id="35czVd8B8zuA92bIW4XF-9" value="" style="endArrow=classic;html=1;rounded=0;exitX=0.9;exitY=0.5;exitDx=0;exitDy=0;exitPerimeter=0;entryX=0;entryY=0.5;entryDx=0;entryDy=0;shape=flexArrow;" parent="1" source="35czVd8B8zuA92bIW4XF-8" target="35czVd8B8zuA92bIW4XF-1" edge="1">
          <mxGeometry width="50" height="50" relative="1" as="geometry">
            <mxPoint x="340" y="340" as="sourcePoint" />
            <mxPoint x="390" y="290" as="targetPoint" />
          </mxGeometry>
        </mxCell>
        <mxCell id="35czVd8B8zuA92bIW4XF-10" value="1、输入用户密码，&lt;br&gt;点击注册" style="text;html=1;align=center;verticalAlign=middle;resizable=0;points=[];autosize=1;strokeColor=none;fillColor=none;" parent="1" vertex="1">
          <mxGeometry x="80" y="280" width="130" height="40" as="geometry" />
        </mxCell>
        <mxCell id="35czVd8B8zuA92bIW4XF-11" value="" style="endArrow=classic;html=1;rounded=0;exitX=1;exitY=0;exitDx=0;exitDy=0;entryX=0;entryY=0;entryDx=0;entryDy=0;shape=flexArrow;" parent="1" source="35czVd8B8zuA92bIW4XF-1" target="35czVd8B8zuA92bIW4XF-2" edge="1">
          <mxGeometry width="50" height="50" relative="1" as="geometry">
            <mxPoint x="340" y="340" as="sourcePoint" />
            <mxPoint x="390" y="290" as="targetPoint" />
          </mxGeometry>
        </mxCell>
        <mxCell id="35czVd8B8zuA92bIW4XF-12" value="2、进入注册页面时首先获取服务器的公钥" style="text;html=1;align=center;verticalAlign=middle;resizable=0;points=[];autosize=1;strokeColor=none;fillColor=none;" parent="1" vertex="1">
          <mxGeometry x="289" y="250" width="250" height="30" as="geometry" />
        </mxCell>
        <mxCell id="35czVd8B8zuA92bIW4XF-15" value="" style="endArrow=classic;html=1;rounded=0;exitX=0;exitY=0.5;exitDx=0;exitDy=0;entryX=1;entryY=0.5;entryDx=0;entryDy=0;shape=flexArrow;" parent="1" source="35czVd8B8zuA92bIW4XF-2" target="35czVd8B8zuA92bIW4XF-1" edge="1">
          <mxGeometry width="50" height="50" relative="1" as="geometry">
            <mxPoint x="340" y="340" as="sourcePoint" />
            <mxPoint x="390" y="290" as="targetPoint" />
          </mxGeometry>
        </mxCell>
        <mxCell id="35czVd8B8zuA92bIW4XF-16" value="3、返回服务器公钥" style="text;html=1;align=center;verticalAlign=middle;resizable=0;points=[];autosize=1;strokeColor=none;fillColor=none;" parent="1" vertex="1">
          <mxGeometry x="350" y="290" width="130" height="30" as="geometry" />
        </mxCell>
        <mxCell id="35czVd8B8zuA92bIW4XF-21" value="4&lt;br&gt;（1）公钥加密密码得到密文；&lt;br&gt;（2）携带用户名，密文请求注册" style="text;html=1;align=center;verticalAlign=middle;resizable=0;points=[];autosize=1;strokeColor=none;fillColor=none;" parent="1" vertex="1">
          <mxGeometry x="325" y="360" width="200" height="60" as="geometry" />
        </mxCell>
        <mxCell id="35czVd8B8zuA92bIW4XF-23" value="数据库" style="shape=datastore;whiteSpace=wrap;html=1;" parent="1" vertex="1">
          <mxGeometry x="580" y="505" width="80" height="80" as="geometry" />
        </mxCell>
        <mxCell id="35czVd8B8zuA92bIW4XF-29" value="" style="endArrow=classic;html=1;rounded=0;exitX=0.5;exitY=1;exitDx=0;exitDy=0;entryX=0.5;entryY=0;entryDx=0;entryDy=0;shape=flexArrow;" parent="1" source="35czVd8B8zuA92bIW4XF-2" target="35czVd8B8zuA92bIW4XF-23" edge="1">
          <mxGeometry width="50" height="50" relative="1" as="geometry">
            <mxPoint x="460" y="390" as="sourcePoint" />
            <mxPoint x="660" y="500" as="targetPoint" />
          </mxGeometry>
        </mxCell>
        <mxCell id="35czVd8B8zuA92bIW4XF-30" value="5&lt;br&gt;&lt;br&gt;（1）私钥解密得到明文密码A；&lt;br&gt;（2）生成N位随机盐值B；&lt;br&gt;（3）将随机盐值拼接到明文密码得到串C；&lt;br&gt;（4）MD5加密拼接串得到串D；&lt;br&gt;（5）在MD5加密串首部拼接上盐值得到串E；&lt;br&gt;（6）将用户名和串E保存到数据库" style="text;html=1;align=center;verticalAlign=middle;resizable=0;points=[];autosize=1;strokeColor=none;fillColor=none;" parent="1" vertex="1">
          <mxGeometry x="615" y="360" width="270" height="130" as="geometry" />
        </mxCell>
        <mxCell id="35czVd8B8zuA92bIW4XF-33" value="" style="endArrow=classic;html=1;rounded=0;exitX=1;exitY=0.5;exitDx=0;exitDy=0;entryX=1;entryY=0.5;entryDx=0;entryDy=0;shape=flexArrow;" parent="1" source="35czVd8B8zuA92bIW4XF-2" target="35czVd8B8zuA92bIW4XF-40" edge="1">
          <mxGeometry width="50" height="50" relative="1" as="geometry">
            <mxPoint x="460" y="420" as="sourcePoint" />
            <mxPoint x="680" y="150" as="targetPoint" />
            <Array as="points">
              <mxPoint x="780" y="320" />
              <mxPoint x="780" y="150" />
            </Array>
          </mxGeometry>
        </mxCell>
        <mxCell id="35czVd8B8zuA92bIW4XF-34" value="6&lt;br&gt;（1）根据时间戳生成cookies串；&lt;br&gt;（2）[key:cookies串;value:null]=&amp;gt;redis" style="text;html=1;align=center;verticalAlign=middle;resizable=0;points=[];autosize=1;strokeColor=none;fillColor=none;" parent="1" vertex="1">
          <mxGeometry x="775" y="195" width="230" height="60" as="geometry" />
        </mxCell>
        <mxCell id="35czVd8B8zuA92bIW4XF-38" value="7&lt;br&gt;（1）返回cookies给客户端；&lt;br&gt;（2）客户端刷新重定向" style="text;html=1;align=center;verticalAlign=middle;resizable=0;points=[];autosize=1;strokeColor=none;fillColor=none;" parent="1" vertex="1">
          <mxGeometry x="335" y="445" width="180" height="60" as="geometry" />
        </mxCell>
        <mxCell id="35czVd8B8zuA92bIW4XF-39" value="" style="endArrow=classic;html=1;rounded=0;exitX=0;exitY=1;exitDx=0;exitDy=0;entryX=1;entryY=1;entryDx=0;entryDy=0;shape=flexArrow;" parent="1" source="35czVd8B8zuA92bIW4XF-2" target="35czVd8B8zuA92bIW4XF-1" edge="1">
          <mxGeometry width="50" height="50" relative="1" as="geometry">
            <mxPoint x="490" y="390" as="sourcePoint" />
            <mxPoint x="540" y="340" as="targetPoint" />
            <Array as="points">
              <mxPoint x="580" y="450" />
              <mxPoint x="280" y="450" />
            </Array>
          </mxGeometry>
        </mxCell>
        <mxCell id="35czVd8B8zuA92bIW4XF-40" value="redis" style="shape=datastore;whiteSpace=wrap;html=1;" parent="1" vertex="1">
          <mxGeometry x="580" y="110" width="80" height="80" as="geometry" />
        </mxCell>
        <mxCell id="35czVd8B8zuA92bIW4XF-63" style="edgeStyle=orthogonalEdgeStyle;rounded=0;orthogonalLoop=1;jettySize=auto;html=1;entryX=0;entryY=1;entryDx=0;entryDy=0;shape=flexArrow;" parent="1" source="35czVd8B8zuA92bIW4XF-64" target="35czVd8B8zuA92bIW4XF-65" edge="1">
          <mxGeometry relative="1" as="geometry">
            <mxPoint x="280" y="950" as="targetPoint" />
            <Array as="points">
              <mxPoint x="420" y="910" />
              <mxPoint x="420" y="910" />
            </Array>
          </mxGeometry>
        </mxCell>
        <mxCell id="35czVd8B8zuA92bIW4XF-64" value="客户端" style="whiteSpace=wrap;html=1;aspect=fixed;" parent="1" vertex="1">
          <mxGeometry x="200" y="830" width="80" height="80" as="geometry" />
        </mxCell>
        <mxCell id="35czVd8B8zuA92bIW4XF-65" value="服务端" style="whiteSpace=wrap;html=1;aspect=fixed;" parent="1" vertex="1">
          <mxGeometry x="580" y="830" width="80" height="80" as="geometry" />
        </mxCell>
        <mxCell id="35czVd8B8zuA92bIW4XF-66" value="" style="shape=doubleArrow;whiteSpace=wrap;html=1;rotation=90;" parent="1" vertex="1">
          <mxGeometry x="585" y="765" width="70" height="40" as="geometry" />
        </mxCell>
        <mxCell id="35czVd8B8zuA92bIW4XF-67" value="每小时生成一对新的密钥对" style="text;html=1;align=center;verticalAlign=middle;resizable=0;points=[];autosize=1;strokeColor=none;fillColor=none;" parent="1" vertex="1">
          <mxGeometry x="535" y="765" width="170" height="30" as="geometry" />
        </mxCell>
        <mxCell id="35czVd8B8zuA92bIW4XF-68" value="" style="shape=actor;whiteSpace=wrap;html=1;" parent="1" vertex="1">
          <mxGeometry x="30" y="840" width="40" height="60" as="geometry" />
        </mxCell>
        <mxCell id="35czVd8B8zuA92bIW4XF-69" value="" style="endArrow=classic;html=1;rounded=0;exitX=0.9;exitY=0.5;exitDx=0;exitDy=0;exitPerimeter=0;entryX=0;entryY=0.5;entryDx=0;entryDy=0;shape=flexArrow;" parent="1" source="35czVd8B8zuA92bIW4XF-68" target="35czVd8B8zuA92bIW4XF-64" edge="1">
          <mxGeometry width="50" height="50" relative="1" as="geometry">
            <mxPoint x="340" y="890" as="sourcePoint" />
            <mxPoint x="390" y="840" as="targetPoint" />
          </mxGeometry>
        </mxCell>
        <mxCell id="35czVd8B8zuA92bIW4XF-70" value="1、输入用户密码，&lt;br&gt;点击登录" style="text;html=1;align=center;verticalAlign=middle;resizable=0;points=[];autosize=1;strokeColor=none;fillColor=none;" parent="1" vertex="1">
          <mxGeometry x="70" y="830" width="130" height="40" as="geometry" />
        </mxCell>
        <mxCell id="35czVd8B8zuA92bIW4XF-71" value="" style="endArrow=classic;html=1;rounded=0;exitX=1;exitY=0;exitDx=0;exitDy=0;entryX=0;entryY=0;entryDx=0;entryDy=0;shape=flexArrow;" parent="1" source="35czVd8B8zuA92bIW4XF-64" target="35czVd8B8zuA92bIW4XF-65" edge="1">
          <mxGeometry width="50" height="50" relative="1" as="geometry">
            <mxPoint x="340" y="890" as="sourcePoint" />
            <mxPoint x="390" y="840" as="targetPoint" />
          </mxGeometry>
        </mxCell>
        <mxCell id="35czVd8B8zuA92bIW4XF-72" value="2、进入登录页面时首先获取服务器的公钥" style="text;html=1;align=center;verticalAlign=middle;resizable=0;points=[];autosize=1;strokeColor=none;fillColor=none;" parent="1" vertex="1">
          <mxGeometry x="289" y="800" width="250" height="30" as="geometry" />
        </mxCell>
        <mxCell id="35czVd8B8zuA92bIW4XF-73" value="" style="endArrow=classic;html=1;rounded=0;exitX=0;exitY=0.5;exitDx=0;exitDy=0;entryX=1;entryY=0.5;entryDx=0;entryDy=0;shape=flexArrow;" parent="1" source="35czVd8B8zuA92bIW4XF-65" target="35czVd8B8zuA92bIW4XF-64" edge="1">
          <mxGeometry width="50" height="50" relative="1" as="geometry">
            <mxPoint x="340" y="890" as="sourcePoint" />
            <mxPoint x="390" y="840" as="targetPoint" />
          </mxGeometry>
        </mxCell>
        <mxCell id="35czVd8B8zuA92bIW4XF-74" value="3、返回服务器公钥" style="text;html=1;align=center;verticalAlign=middle;resizable=0;points=[];autosize=1;strokeColor=none;fillColor=none;" parent="1" vertex="1">
          <mxGeometry x="350" y="840" width="130" height="30" as="geometry" />
        </mxCell>
        <mxCell id="35czVd8B8zuA92bIW4XF-75" value="4&lt;br&gt;（1）公钥加密密码得到密文；&lt;br&gt;（2）携带用户名，密文请求登录" style="text;html=1;align=center;verticalAlign=middle;resizable=0;points=[];autosize=1;strokeColor=none;fillColor=none;" parent="1" vertex="1">
          <mxGeometry x="325" y="910" width="200" height="60" as="geometry" />
        </mxCell>
        <mxCell id="35czVd8B8zuA92bIW4XF-76" value="数据库" style="shape=datastore;whiteSpace=wrap;html=1;" parent="1" vertex="1">
          <mxGeometry x="580" y="1055" width="80" height="80" as="geometry" />
        </mxCell>
        <mxCell id="35czVd8B8zuA92bIW4XF-77" value="" style="endArrow=classic;html=1;rounded=0;exitX=0.5;exitY=1;exitDx=0;exitDy=0;entryX=0.5;entryY=0;entryDx=0;entryDy=0;shape=flexArrow;" parent="1" source="35czVd8B8zuA92bIW4XF-65" target="35czVd8B8zuA92bIW4XF-76" edge="1">
          <mxGeometry width="50" height="50" relative="1" as="geometry">
            <mxPoint x="460" y="940" as="sourcePoint" />
            <mxPoint x="660" y="1050" as="targetPoint" />
          </mxGeometry>
        </mxCell>
        <mxCell id="35czVd8B8zuA92bIW4XF-78" value="5&lt;br&gt;&lt;br&gt;（1）私钥解密得到明文密码A；&lt;br&gt;（2）根据用户名查询数据库加密串&lt;b&gt;&lt;font color=&quot;#ff0000&quot;&gt;B&lt;/font&gt;&lt;/b&gt;；&lt;br&gt;（3）取前N位作为盐值C；&lt;br&gt;（4）将盐值C拼接到明文密码首部得到串D；&lt;br&gt;（5）MD5加密串D得到串E；&lt;br&gt;（6）C拼接到E首部得到串&lt;font color=&quot;#ff0000&quot;&gt;&lt;b&gt;F&lt;/b&gt;&lt;/font&gt;；" style="text;html=1;align=center;verticalAlign=middle;resizable=0;points=[];autosize=1;strokeColor=none;fillColor=none;" parent="1" vertex="1">
          <mxGeometry x="620" y="910" width="260" height="130" as="geometry" />
        </mxCell>
        <mxCell id="35czVd8B8zuA92bIW4XF-79" value="" style="endArrow=classic;html=1;rounded=0;exitX=1;exitY=0.5;exitDx=0;exitDy=0;entryX=1;entryY=0.5;entryDx=0;entryDy=0;shape=flexArrow;" parent="1" source="35czVd8B8zuA92bIW4XF-65" target="35czVd8B8zuA92bIW4XF-83" edge="1">
          <mxGeometry width="50" height="50" relative="1" as="geometry">
            <mxPoint x="460" y="970" as="sourcePoint" />
            <mxPoint x="680" y="700" as="targetPoint" />
            <Array as="points">
              <mxPoint x="780" y="870" />
              <mxPoint x="780" y="700" />
            </Array>
          </mxGeometry>
        </mxCell>
        <mxCell id="35czVd8B8zuA92bIW4XF-80" value="6&lt;br&gt;IF：&lt;font color=&quot;#ff0000&quot;&gt;&lt;b&gt;B=F&lt;/b&gt;&lt;/font&gt;登录成功：&lt;br&gt;（1）根据时间戳生成cookies串；&lt;br&gt;（2）[key:cookies串;value:null]=&amp;gt;redis" style="text;html=1;align=center;verticalAlign=middle;resizable=0;points=[];autosize=1;strokeColor=none;fillColor=none;" parent="1" vertex="1">
          <mxGeometry x="775" y="740" width="230" height="70" as="geometry" />
        </mxCell>
        <mxCell id="35czVd8B8zuA92bIW4XF-81" value="7&lt;br&gt;IF：&lt;b&gt;&lt;font color=&quot;#ff0000&quot;&gt;B=F&lt;/font&gt;&lt;/b&gt;登录成功：&lt;br&gt;（1）返回cookies给客户端；&lt;br&gt;（2）客户端刷新重定向；&lt;br&gt;ELSE：&lt;font color=&quot;#ff0000&quot;&gt;&lt;b&gt;B!=F&lt;/b&gt;&lt;/font&gt;登录失败&lt;br&gt;返回登录失败" style="text;html=1;align=center;verticalAlign=middle;resizable=0;points=[];autosize=1;strokeColor=none;fillColor=none;" parent="1" vertex="1">
          <mxGeometry x="334" y="995" width="180" height="100" as="geometry" />
        </mxCell>
        <mxCell id="35czVd8B8zuA92bIW4XF-82" value="" style="endArrow=classic;html=1;rounded=0;exitX=0;exitY=1;exitDx=0;exitDy=0;entryX=1;entryY=1;entryDx=0;entryDy=0;shape=flexArrow;" parent="1" source="35czVd8B8zuA92bIW4XF-65" target="35czVd8B8zuA92bIW4XF-64" edge="1">
          <mxGeometry width="50" height="50" relative="1" as="geometry">
            <mxPoint x="490" y="940" as="sourcePoint" />
            <mxPoint x="540" y="890" as="targetPoint" />
            <Array as="points">
              <mxPoint x="580" y="1000" />
              <mxPoint x="280" y="1000" />
            </Array>
          </mxGeometry>
        </mxCell>
        <mxCell id="35czVd8B8zuA92bIW4XF-83" value="redis" style="shape=datastore;whiteSpace=wrap;html=1;" parent="1" vertex="1">
          <mxGeometry x="580" y="660" width="80" height="80" as="geometry" />
        </mxCell>
        <mxCell id="RhRJzxKM9BQyAB8lmF8P-1" value="&lt;h1&gt;&lt;font color=&quot;#000000&quot;&gt;用户登录&lt;/font&gt;&lt;/h1&gt;" style="text;html=1;align=center;verticalAlign=middle;resizable=0;points=[];autosize=1;strokeColor=none;fillColor=none;fontColor=#FF0000;" vertex="1" parent="1">
          <mxGeometry x="-120" y="835" width="120" height="70" as="geometry" />
        </mxCell>
        <mxCell id="RhRJzxKM9BQyAB8lmF8P-2" value="&lt;h1&gt;用户注册&lt;/h1&gt;" style="text;html=1;align=center;verticalAlign=middle;resizable=0;points=[];autosize=1;strokeColor=none;fillColor=none;fontColor=#000000;" vertex="1" parent="1">
          <mxGeometry x="-120" y="285" width="120" height="70" as="geometry" />
        </mxCell>
      </root>
    </mxGraphModel>
  </diagram>
</mxfile>
